<svg width="50" height="50" viewBox="0 0 50 50" fill="none" xmlns="http://www.w3.org/2000/svg">
<g id="arrow-icon">
<path id="arrow" d="M9 23C7.89543 23 7 23.8954 7 25C7 26.1046 7.89543 27 9 27V23ZM41.4142 26.4142C42.1953 25.6332 42.1953 24.3668 41.4142 23.5858L28.6863 10.8579C27.9052 10.0768 26.6389 10.0768 25.8579 10.8579C25.0768 11.6389 25.0768 12.9052 25.8579 13.6863L37.1716 25L25.8579 36.3137C25.0768 37.0948 25.0768 38.3611 25.8579 39.1421C26.6389 39.9232 27.9052 39.9232 28.6863 39.1421L41.4142 26.4142ZM9 27H40V23H9V27Z" fill="black"/>
</g>
</svg>
