<svg width="600" height="200" viewBox="0 0 600 200" fill="none" xmlns="http://www.w3.org/2000/svg">
<path d="M92.6797 89.3242L93.7914 85.4818L93.7847 85.4799L92.6797 89.3242ZM85.6484 85.9258L82.9266 88.857L82.9402 88.8695L82.9538 88.882L85.6484 85.9258ZM86.1367 75.3789L88.6684 78.4757L88.6709 78.4737L86.1367 75.3789ZM98.3438 74.3047L96.5671 77.8885L96.5793 77.8945L98.3438 74.3047ZM101.898 77.4297L98.5102 79.5557L98.5176 79.5675L98.5252 79.5793L101.898 77.4297ZM103.168 81.7852V85.7852H107.168V81.7852H103.168ZM99.3984 81.7852H95.3984V85.7852H99.3984V81.7852ZM97.7578 77.7422L95.0742 80.7083L95.0839 80.7172L95.0937 80.7259L97.7578 77.7422ZM88.793 77.4883L91.2625 80.6349L91.2677 80.6308L88.793 77.4883ZM88.7148 83.8164L86.1663 86.8994L86.1885 86.9178L86.2111 86.9359L88.7148 83.8164ZM93.7344 86.0039L92.6495 89.854L92.6551 89.8555L93.7344 86.0039ZM99.2812 88.2109L97.2036 91.629L97.2232 91.6409L97.243 91.6526L99.2812 88.2109ZM102.25 91.0039L98.8163 93.0557L98.8255 93.0711L98.8348 93.0863L102.25 91.0039ZM100.531 100.32L102.968 103.493L102.975 103.487L102.982 103.481L100.531 100.32ZM87.8555 101.277L86.2257 104.93L86.2375 104.936L86.2492 104.941L87.8555 101.277ZM83.9297 98.1914L80.6528 100.485L80.6604 100.496L80.6682 100.507L83.9297 98.1914ZM82.5625 93.7578V89.7578H78.5625V93.7578H82.5625ZM86.332 93.7578H90.332V89.7578H86.332V93.7578ZM88.2266 97.8398L85.7396 100.973L85.7574 100.987L85.7753 101.001L88.2266 97.8398ZM97.9922 91.5898L95.5191 94.7337L95.5321 94.7439L95.5452 94.7541L97.9922 91.5898ZM93.7847 85.4799C90.8082 84.6243 89.1504 83.7055 88.343 82.9696L82.9538 88.882C85.0892 90.8283 88.1189 92.1752 91.5746 93.1685L93.7847 85.4799ZM88.3702 82.9946C87.7218 82.3925 87.4609 81.7857 87.4609 80.9258H79.4609C79.4609 84.0242 80.6584 86.7507 82.9266 88.857L88.3702 82.9946ZM87.4609 80.9258C87.4609 79.9259 87.7829 79.1997 88.6684 78.4757L83.605 72.2821C80.9229 74.4748 79.4609 77.4465 79.4609 80.9258H87.4609ZM88.6709 78.4737C89.598 77.7146 90.9659 77.1719 93.1289 77.1719V69.1719C89.5627 69.1719 86.2692 70.1005 83.6025 72.2841L88.6709 78.4737ZM93.1289 77.1719C94.5575 77.1719 95.6727 77.4451 96.5672 77.8885L100.12 70.7209C97.9679 69.6539 95.6065 69.1719 93.1289 69.1719V77.1719ZM96.5793 77.8945C97.5125 78.3532 98.1076 78.9141 98.5102 79.5557L105.287 75.3037C104.023 73.289 102.248 71.7666 100.108 70.7149L96.5793 77.8945ZM98.5252 79.5793C98.962 80.2649 99.168 80.9709 99.168 81.7852H107.168C107.168 79.4484 106.528 77.2507 105.272 75.28L98.5252 79.5793ZM103.168 77.7852H99.3984V85.7852H103.168V77.7852ZM103.398 81.7852C103.398 79.1424 102.514 76.6265 100.422 74.7584L95.0937 80.7259C95.189 80.811 95.3984 80.9904 95.3984 81.7852H103.398ZM100.441 74.776C98.3872 72.9175 95.7605 72.2578 93.1289 72.2578V80.2578C94.4817 80.2578 94.9409 80.5878 95.0742 80.7083L100.441 74.776ZM93.1289 72.2578C90.7303 72.2578 88.2971 72.7873 86.3182 74.3457L91.2677 80.6308C91.3721 80.5486 91.8296 80.2578 93.1289 80.2578V72.2578ZM86.3234 74.3416C84.218 75.994 83.25 78.3415 83.25 80.8672H91.25C91.25 80.7428 91.2611 80.666 91.2688 80.6275C91.2761 80.5906 91.2811 80.5851 91.2743 80.6C91.2671 80.6158 91.2559 80.6341 91.2445 80.6485C91.2336 80.6621 91.235 80.6565 91.2625 80.6349L86.3234 74.3416ZM83.25 80.8672C83.25 83.3397 84.368 85.4128 86.1663 86.8994L91.2634 80.7334C91.2003 80.6813 91.174 80.6502 91.1698 80.645C91.1665 80.641 91.1803 80.6574 91.1987 80.6943C91.2173 80.7319 91.2323 80.774 91.2415 80.8143C91.2505 80.8538 91.25 80.8741 91.25 80.8672H83.25ZM86.2111 86.9359C87.85 88.2514 90.1668 89.1544 92.6495 89.854L94.8192 82.1538C92.5884 81.5253 91.5588 80.97 91.2186 80.6969L86.2111 86.9359ZM92.6551 89.8555C94.8527 90.4714 96.3135 91.088 97.2036 91.629L101.359 84.7928C99.5928 83.7193 97.3556 82.8646 94.8137 82.1523L92.6551 89.8555ZM97.243 91.6526C98.1531 92.1916 98.5963 92.6876 98.8163 93.0557L105.684 88.9521C104.628 87.1848 103.092 85.8188 101.32 84.7692L97.243 91.6526ZM98.8348 93.0863C99.047 93.4343 99.2266 93.9464 99.2266 94.7734H107.227C107.227 92.7099 106.755 90.7089 105.665 88.9215L98.8348 93.0863ZM99.2266 94.7734C99.2266 95.8614 98.8845 96.5356 98.0802 97.1592L102.982 103.481C105.772 101.319 107.227 98.2949 107.227 94.7734H99.2266ZM98.0946 97.1481C97.1949 97.8392 95.7387 98.3906 93.3242 98.3906V106.391C96.9254 106.391 100.274 105.562 102.968 103.493L98.0946 97.1481ZM93.3242 98.3906C91.8921 98.3906 90.6196 98.1217 89.4617 97.614L86.2492 104.941C88.4768 105.917 90.8501 106.391 93.3242 106.391V98.3906ZM89.4852 97.6244C88.3398 97.1134 87.6386 96.5058 87.1912 95.8757L80.6682 100.507C82.0697 102.481 83.9857 103.931 86.2257 104.93L89.4852 97.6244ZM87.2066 95.8976C86.7856 95.2961 86.5625 94.626 86.5625 93.7578H78.5625C78.5625 96.1969 79.2508 98.4825 80.6528 100.485L87.2066 95.8976ZM82.5625 97.7578H86.332V89.7578H82.5625V97.7578ZM82.332 93.7578C82.332 96.6044 83.4505 99.1556 85.7396 100.973L90.7135 94.7069C90.4766 94.5189 90.332 94.3487 90.332 93.7578H82.332ZM85.7753 101.001C87.9455 102.684 90.5938 103.324 93.3242 103.324V95.3242C91.8098 95.3242 91.0597 94.9751 90.6779 94.679L85.7753 101.001ZM93.3242 103.324C95.7708 103.324 98.2854 102.836 100.306 101.29L95.4437 94.937C95.3552 95.0047 94.836 95.3242 93.3242 95.3242V103.324ZM100.306 101.29C102.405 99.6833 103.457 97.3799 103.457 94.8125H95.457C95.457 94.9082 95.448 94.9592 95.4447 94.9748C95.4418 94.9888 95.4427 94.9783 95.4544 94.9538C95.4664 94.9288 95.4801 94.9092 95.4882 94.8994C95.4955 94.8906 95.4858 94.9047 95.4437 94.937L100.306 101.29ZM103.457 94.8125C103.457 92.3624 102.53 90.0428 100.439 88.4256L95.5452 94.7541C95.5521 94.7594 95.5359 94.7477 95.5107 94.7162C95.4849 94.684 95.4636 94.6485 95.4494 94.6171C95.4356 94.5869 95.4365 94.5785 95.4416 94.6039C95.4469 94.6309 95.457 94.6973 95.457 94.8125H103.457ZM100.465 88.446C98.8364 87.1646 96.4134 86.2405 93.7914 85.4818L91.5679 93.1666C94.0762 93.8924 95.1948 94.4786 95.5191 94.7337L100.465 88.446ZM128.531 102L124.954 103.789L126.059 106H128.531V102ZM128.023 99.7734L131.994 99.2892L130.976 90.9392L125.142 96.9993L128.023 99.7734ZM116.871 100.633L114.208 103.618L114.224 103.631L114.239 103.645L116.871 100.633ZM117.379 91.0234L119.73 94.2595L119.735 94.2562L117.379 91.0234ZM127.965 89.1875V93.1875H131.965V89.1875H127.965ZM126.832 84.5195L124.004 87.348L124.016 87.3603L124.028 87.3724L126.832 84.5195ZM118.941 86.7266V90.7266H122.941V86.7266H118.941ZM115.309 86.7266H111.309V90.7266H115.309V86.7266ZM116.422 83.6797L113.242 81.253L113.237 81.2594L116.422 83.6797ZM119.469 81.3359L117.844 77.6807L117.837 77.6838L117.83 77.6869L119.469 81.3359ZM129.43 82.3125L126.776 85.3053L126.784 85.3123L126.792 85.3193L129.43 82.3125ZM131.578 87.332H135.578V87.2833L135.577 87.2345L131.578 87.332ZM132.32 101.688H136.32V100.861L135.993 100.102L132.32 101.688ZM132.32 102V106H136.32V102H132.32ZM127.965 96.082L131.562 97.8308L131.965 97.0027V96.082H127.965ZM127.965 91.7461H131.965V87.7461H127.965V91.7461ZM132.109 100.211C132.168 100.329 132.189 100.397 132.186 100.387C132.184 100.382 132.17 100.337 132.148 100.241C132.103 100.046 132.049 99.7376 131.994 99.2892L124.053 100.258C124.185 101.341 124.408 102.698 124.954 103.789L132.109 100.211ZM125.142 96.9993C124.183 97.9952 123.204 98.3906 122.008 98.3906V106.391C125.473 106.391 128.505 105.041 130.905 102.548L125.142 96.9993ZM122.008 98.3906C120.719 98.3906 119.994 98.05 119.503 97.6207L114.239 103.645C116.43 105.559 119.13 106.391 122.008 106.391V98.3906ZM119.534 97.648C119.073 97.2366 118.879 96.8325 118.879 96.1406H110.879C110.879 99.0685 112.013 101.659 114.208 103.618L119.534 97.648ZM118.879 96.1406C118.879 95.1184 119.179 94.6597 119.73 94.2595L115.028 87.7874C112.245 89.809 110.879 92.7618 110.879 96.1406H118.879ZM119.735 94.2562C120.48 93.7128 121.889 93.1875 124.449 93.1875V85.1875C120.941 85.1875 117.637 85.8861 115.023 87.7907L119.735 94.2562ZM124.449 93.1875H127.965V85.1875H124.449V93.1875ZM131.965 89.1875V87.5273H123.965V89.1875H131.965ZM131.965 87.5273C131.965 85.4138 131.302 83.3036 129.636 81.6666L124.028 87.3724C124.013 87.3575 123.993 87.3338 123.973 87.3032C123.953 87.2727 123.942 87.2486 123.938 87.2379C123.93 87.2159 123.965 87.293 123.965 87.5273H131.965ZM129.66 81.6911C127.908 79.939 125.615 79.3867 123.492 79.3867V87.3867C123.896 87.3867 124.092 87.4397 124.146 87.458C124.181 87.4697 124.102 87.4467 124.004 87.348L129.66 81.6911ZM123.492 79.3867C121.505 79.3867 119.542 79.9007 117.858 81.1575L122.642 87.569C122.703 87.5237 122.901 87.3867 123.492 87.3867V79.3867ZM117.858 81.1575C116.177 82.4119 114.941 84.3059 114.941 86.7266H122.941C122.941 86.9233 122.887 87.1646 122.768 87.38C122.66 87.5751 122.568 87.6247 122.642 87.569L117.858 81.1575ZM118.941 82.7266H115.309V90.7266H118.941V82.7266ZM119.309 86.7266C119.309 86.6835 119.304 86.4986 119.607 86.1L113.237 81.2594C112.056 82.8139 111.309 84.6602 111.309 86.7266H119.309ZM119.602 86.1064C119.905 85.709 120.362 85.3194 121.107 84.985L117.83 77.6869C116.023 78.4983 114.449 79.6713 113.242 81.253L119.602 86.1064ZM121.093 84.9912C121.827 84.6652 122.68 84.4766 123.707 84.4766V76.4766C121.661 76.4766 119.689 76.8608 117.844 77.6807L121.093 84.9912ZM123.707 84.4766C125.483 84.4766 126.335 84.9144 126.776 85.3053L132.084 79.3197C129.764 77.2627 126.801 76.4766 123.707 76.4766V84.4766ZM126.792 85.3193C127.192 85.6709 127.55 86.2116 127.579 87.4296L135.577 87.2345C135.502 84.1817 134.427 81.376 132.068 79.3057L126.792 85.3193ZM127.578 87.332V97.0586H135.578V87.332H127.578ZM127.578 97.0586C127.578 99.2735 127.851 101.427 128.648 103.273L135.993 100.102C135.8 99.6564 135.578 98.7238 135.578 97.0586H127.578ZM128.32 101.688V102H136.32V101.688H128.32ZM132.32 98H128.531V106H132.32V98ZM122.535 103.246C124.395 103.246 126.156 102.756 127.757 101.832L123.759 94.9024C123.329 95.1506 122.941 95.2461 122.535 95.2461V103.246ZM127.757 101.832C129.375 100.898 130.715 99.5749 131.562 97.8308L124.367 94.3333C124.304 94.4642 124.172 94.6642 123.759 94.9024L127.757 101.832ZM131.965 96.082V91.7461H123.965V96.082H131.965ZM127.965 87.7461H125.133V95.7461H127.965V87.7461ZM125.133 87.7461C122.66 87.7461 120.149 88.0848 118.132 89.2656C115.784 90.64 114.492 92.9347 114.492 95.6328H122.492C122.492 95.5679 122.501 95.7047 122.383 95.9119C122.264 96.1211 122.135 96.192 122.173 96.1699C122.236 96.133 122.473 96.0166 122.993 95.915C123.508 95.8146 124.209 95.7461 125.133 95.7461V87.7461ZM114.492 95.6328C114.492 97.7516 115.252 99.831 117.044 101.345L122.206 95.2335C122.242 95.2639 122.29 95.3115 122.339 95.3773C122.388 95.4436 122.427 95.5127 122.455 95.5773C122.512 95.7105 122.492 95.7539 122.492 95.6328H114.492ZM117.044 101.345C118.657 102.708 120.601 103.246 122.535 103.246V95.2461C122.301 95.2461 122.192 95.2146 122.169 95.207C122.157 95.2032 122.16 95.2031 122.172 95.2099C122.184 95.2168 122.197 95.2255 122.206 95.2335L117.044 101.345ZM148.641 80.8672L152.637 80.7007L152.477 76.8672H148.641V80.8672ZM148.738 83.2109L144.742 83.3775L145.167 93.5884L151.786 85.8015L148.738 83.2109ZM161.043 83.875L157.425 85.5802L160.382 91.8564L164.332 86.1518L161.043 83.875ZM163.777 81.4141L161.845 77.9118L161.836 77.9165L161.828 77.9213L163.777 81.4141ZM174.852 87.8398H178.852V87.808L178.851 87.7762L174.852 87.8398ZM174.852 102V106H178.852V102H174.852ZM171.238 102H167.238V106H171.238V102ZM170.203 84.6758L167.25 87.3741L167.262 87.3869L167.274 87.3996L170.203 84.6758ZM163.387 84.7539L166.058 87.7314L166.07 87.7206L166.082 87.7097L163.387 84.7539ZM161.844 87.9766L157.866 87.5558L157.844 87.7656V87.9766H161.844ZM161.844 102V106H165.844V102H161.844ZM158.211 102H154.211V106H158.211V102ZM148.836 86.5703L145.164 84.9832L144.836 85.7428V86.5703H148.836ZM148.836 102V106H152.836V102H148.836ZM145.223 102H141.223V106H145.223V102ZM145.223 80.8672V76.8672H141.223V80.8672H145.223ZM144.644 81.0337L144.742 83.3775L152.735 83.0444L152.637 80.7007L144.644 81.0337ZM151.786 85.8015C152.494 84.9684 153.419 84.4766 155.008 84.4766V76.4766C151.336 76.4766 148.081 77.8077 145.691 80.6203L151.786 85.8015ZM155.008 84.4766C155.987 84.4766 156.509 84.6643 156.771 84.8116C156.991 84.9358 157.213 85.1311 157.425 85.5802L164.661 82.1698C163.805 80.3533 162.487 78.8494 160.696 77.8408C158.946 76.8552 156.985 76.4766 155.008 76.4766V84.4766ZM164.332 86.1518C164.674 85.6579 165.119 85.2458 165.727 84.9069L161.828 77.9213C160.196 78.8323 158.818 80.0609 157.754 81.5982L164.332 86.1518ZM165.71 84.9164C166.149 84.6741 166.794 84.4766 167.781 84.4766V76.4766C165.696 76.4766 163.671 76.9041 161.845 77.9118L165.71 84.9164ZM167.781 84.4766C169.417 84.4766 169.958 84.898 170.14 85.0878C170.362 85.3187 170.822 86.0155 170.852 87.9035L178.851 87.7762C178.803 84.7553 178.046 81.7705 175.911 79.5469C173.736 77.2824 170.781 76.4766 167.781 76.4766V84.4766ZM170.852 87.8398V102H178.852V87.8398H170.852ZM174.852 98H171.238V106H174.852V98ZM175.238 102V88.0547H167.238V102H175.238ZM175.238 88.0547C175.238 86.0194 174.782 83.7263 173.132 81.952L167.274 87.3996C167.145 87.2611 167.131 87.1704 167.155 87.2488C167.184 87.3427 167.238 87.5906 167.238 88.0547H175.238ZM173.156 81.9775C171.359 80.0115 168.828 79.543 166.727 79.543V87.543C167.251 87.543 167.507 87.6064 167.577 87.6294C167.625 87.6451 167.453 87.5962 167.25 87.3741L173.156 81.9775ZM166.727 79.543C164.517 79.543 162.403 80.2373 160.692 81.7981L166.082 87.7097C166.141 87.6559 166.254 87.543 166.727 87.543V79.543ZM160.716 81.7764C158.987 83.3275 158.097 85.3695 157.866 87.5558L165.822 88.3973C165.877 87.8753 166.016 87.7689 166.058 87.7314L160.716 81.7764ZM157.844 87.9766V102H165.844V87.9766H157.844ZM161.844 98H158.211V106H161.844V98ZM162.211 102V88.1523H154.211V102H162.211ZM162.211 88.1523C162.211 86.0206 161.689 83.683 159.942 81.8973C158.178 80.0959 155.842 79.543 153.699 79.543V87.543C154.122 87.543 154.327 87.5984 154.384 87.6175C154.42 87.6298 154.333 87.6038 154.224 87.4933C154.118 87.3846 154.105 87.3099 154.126 87.3765C154.154 87.4614 154.211 87.6982 154.211 88.1523H162.211ZM153.699 79.543C151.947 79.543 150.174 79.9193 148.592 80.904C146.99 81.9015 145.873 83.3435 145.164 84.9832L152.508 88.1574C152.671 87.7789 152.801 87.7072 152.82 87.6956C152.859 87.6712 153.082 87.543 153.699 87.543V79.543ZM144.836 86.5703V102H152.836V86.5703H144.836ZM148.836 98H145.223V106H148.836V98ZM149.223 102V80.8672H141.223V102H149.223ZM145.223 84.8672H148.641V76.8672H145.223V84.8672ZM191.934 99.9492L194.901 97.2668L187.934 89.5597V99.9492H191.934ZM191.934 110.125V114.125H195.934V110.125H191.934ZM188.32 110.125H184.32V114.125H188.32V110.125ZM188.32 80.8672V76.8672H184.32V80.8672H188.32ZM191.621 80.8672L195.61 80.568L195.332 76.8672H191.621V80.8672ZM191.797 83.2109L187.808 83.5101L188.564 93.5853L194.909 85.7233L191.797 83.2109ZM203.945 83.3477L200.774 85.7855L200.779 85.7922L200.784 85.799L203.945 83.3477ZM191.934 86.4531L188.449 84.4888L187.934 85.4033V86.4531H191.934ZM191.934 96.5508H187.934V97.5958L188.445 98.5073L191.934 96.5508ZM201.016 97.3906L197.808 95.0003L197.805 95.0053L201.016 97.3906ZM202.172 91.668C202.172 94.2874 201.576 95.9575 200.762 97.0448L207.167 101.838C209.296 98.993 210.172 95.4809 210.172 91.668H202.172ZM200.762 97.0448C200.067 97.9743 199.275 98.3906 197.988 98.3906V106.391C201.727 106.391 204.92 104.841 207.167 101.838L200.762 97.0448ZM197.988 98.3906C196.344 98.3906 195.484 97.9116 194.901 97.2668L188.966 102.632C191.326 105.242 194.502 106.391 197.988 106.391V98.3906ZM187.934 99.9492V110.125H195.934V99.9492H187.934ZM191.934 106.125H188.32V114.125H191.934V106.125ZM192.32 110.125V80.8672H184.32V110.125H192.32ZM188.32 84.8672H191.621V76.8672H188.32V84.8672ZM187.632 81.1663L187.808 83.5101L195.786 82.9118L195.61 80.568L187.632 81.1663ZM194.909 85.7233C195.526 84.9594 196.361 84.4766 197.93 84.4766V76.4766C194.264 76.4766 191.01 77.8166 188.684 80.6986L194.909 85.7233ZM197.93 84.4766C199.301 84.4766 200.104 84.9141 200.774 85.7855L207.117 80.9099C204.844 77.9531 201.636 76.4766 197.93 76.4766V84.4766ZM200.784 85.799C201.542 86.7754 202.172 88.4577 202.172 91.3359H210.172C210.172 87.3913 209.318 83.7481 207.106 80.8964L200.784 85.799ZM202.172 91.3359V91.668H210.172V91.3359H202.172ZM206.559 91.2578C206.559 88.3471 205.942 85.5322 204.257 83.2426L197.813 87.984C198.16 88.4548 198.559 89.4029 198.559 91.2578H206.559ZM204.257 83.2426C202.458 80.7983 199.848 79.543 196.855 79.543V87.543C197.404 87.543 197.581 87.6679 197.813 87.984L204.257 83.2426ZM196.855 79.543C193.192 79.543 190.236 81.3194 188.449 84.4888L195.418 88.4175C195.819 87.7067 196.144 87.543 196.855 87.543V79.543ZM187.934 86.4531V96.5508H195.934V86.4531H187.934ZM188.445 98.5073C189.28 99.9958 190.437 101.281 191.971 102.175C193.502 103.067 195.191 103.441 196.895 103.441V95.4414C196.372 95.4414 196.12 95.3336 195.998 95.2626C195.878 95.1926 195.668 95.0328 195.422 94.5942L188.445 98.5073ZM196.895 103.441C199.867 103.441 202.441 102.179 204.227 99.7759L197.805 95.0053C197.559 95.3367 197.386 95.4414 196.895 95.4414V103.441ZM204.223 99.7809C205.986 97.415 206.559 94.3673 206.559 91.2578H198.559C198.559 93.565 198.102 94.6058 197.808 95.0003L204.223 99.7809ZM222.707 102V106H226.707V102H222.707ZM219.094 102H215.094V106H219.094V102ZM219.094 72V68H215.094V72H219.094ZM222.707 72H226.707V68H222.707V72ZM222.707 98H219.094V106H222.707V98ZM223.094 102V72H215.094V102H223.094ZM219.094 76H222.707V68H219.094V76ZM218.707 72V102H226.707V72H218.707ZM238.285 99.5781L235.388 102.336L235.397 102.346L238.285 99.5781ZM236.781 85.75L233.187 83.9952L233.181 84.007L236.781 85.75ZM240.141 81.8828L242.31 85.2436L242.317 85.2387L240.141 81.8828ZM251.234 83.1914L248.174 85.7673L251.234 83.1914ZM253.52 92.4688V96.4688H257.52V92.4688H253.52ZM239.203 92.4688V88.4688H235.102L235.204 92.5687L239.203 92.4688ZM241.02 97.5273L238.045 100.202L238.059 100.217L238.073 100.233L241.02 97.5273ZM251.039 96.5898L253.497 93.4339L250.329 90.967L247.874 94.1441L251.039 96.5898ZM253.246 98.3086L256.599 100.49L258.603 97.4104L255.704 95.1527L253.246 98.3086ZM241.156 85.0469L244.073 87.7838L244.082 87.7749L244.09 87.7659L241.156 85.0469ZM239.32 89.5L235.35 89.0138L234.801 93.5H239.32V89.5ZM249.906 89.5V93.5H253.906V89.5H249.906ZM249.906 89.2266H253.906V89.1132L253.9 89L249.906 89.2266ZM248.422 84.9688L245.407 87.5973L245.415 87.6069L245.424 87.6165L248.422 84.9688ZM245.277 98.3906C243.379 98.3906 242.134 97.8129 241.173 96.8105L235.397 102.346C238.03 105.093 241.447 106.391 245.277 106.391V98.3906ZM241.183 96.8205C240.236 95.826 239.59 94.3713 239.59 92.0195H231.59C231.59 95.9699 232.74 99.5543 235.388 102.336L241.183 96.8205ZM239.59 92.0195V91.3555H231.59V92.0195H239.59ZM239.59 91.3555C239.59 89.7722 239.887 88.5141 240.382 87.493L233.181 84.007C232.087 86.2671 231.59 88.746 231.59 91.3555H239.59ZM240.376 87.5048C240.89 86.4524 241.539 85.7413 242.31 85.2436L237.971 78.5221C235.878 79.8733 234.288 81.7403 233.187 83.9952L240.376 87.5048ZM242.317 85.2387C243.132 84.7102 243.942 84.4766 244.828 84.4766V76.4766C242.355 76.4766 240.04 77.1804 237.964 78.527L242.317 85.2387ZM244.828 84.4766C246.607 84.4766 247.537 85.0107 248.174 85.7673L254.295 80.6155C251.885 77.7523 248.544 76.4766 244.828 76.4766V84.4766ZM248.174 85.7673C248.878 86.603 249.52 88.1406 249.52 90.9648H257.52C257.52 87.0443 256.638 83.3996 254.295 80.6155L248.174 85.7673ZM249.52 90.9648V92.4688H257.52V90.9648H249.52ZM253.52 88.4688H239.203V96.4688H253.52V88.4688ZM235.204 92.5687C235.275 95.4033 236.126 98.0671 238.045 100.202L243.994 94.8531C243.595 94.4095 243.235 93.7009 243.202 92.3688L235.204 92.5687ZM238.073 100.233C240.034 102.368 242.603 103.441 245.473 103.441V95.4414C244.749 95.4414 244.349 95.2388 243.966 94.8217L238.073 100.233ZM245.473 103.441C247.291 103.441 249.11 103.068 250.743 102.108L246.687 95.2124C246.549 95.2937 246.207 95.4414 245.473 95.4414V103.441ZM250.743 102.108C252.093 101.314 253.247 100.275 254.204 99.0356L247.874 94.1441C247.503 94.6234 247.108 94.9646 246.687 95.2124L250.743 102.108ZM248.581 99.7457L250.788 101.464L255.704 95.1527L253.497 93.4339L248.581 99.7457ZM249.893 96.1269C248.937 97.5969 247.612 98.3906 245.277 98.3906V106.391C250.026 106.391 254.014 104.463 256.599 100.49L249.893 96.1269ZM244.828 79.4453C242.258 79.4453 239.971 80.4417 238.223 82.3278L244.09 87.7659C244.321 87.5166 244.481 87.4453 244.828 87.4453V79.4453ZM238.239 82.3099C236.502 84.1612 235.653 86.535 235.35 89.0138L243.291 89.9862C243.456 88.6369 243.831 88.0419 244.073 87.7838L238.239 82.3099ZM239.32 93.5H249.906V85.5H239.32V93.5ZM253.906 89.5V89.2266H245.906V89.5H253.906ZM253.9 89C253.764 86.5999 253.087 84.2088 251.42 82.321L245.424 87.6165C245.527 87.7339 245.841 88.1813 245.913 89.4531L253.9 89ZM251.437 82.3402C249.695 80.3419 247.338 79.4453 244.828 79.4453V87.4453C245.132 87.4453 245.266 87.4953 245.298 87.5089C245.319 87.5177 245.348 87.5298 245.407 87.5973L251.437 82.3402ZM288.543 75.75H292.543V71.75H288.543V75.75ZM288.543 80.8672H284.543V84.8672H288.543V80.8672ZM292.488 80.8672H296.488V76.8672H292.488V80.8672ZM292.488 83.6602V87.6602H296.488V83.6602H292.488ZM288.543 83.6602V79.6602H284.543V83.6602H288.543ZM289.07 98.6797L285.974 101.213L285.994 101.236L286.013 101.259L289.07 98.6797ZM292.586 99.0703H296.586V94.1224L291.748 95.1591L292.586 99.0703ZM292.586 102L293.643 105.858L296.586 105.052V102H292.586ZM284.93 83.6602H288.93V79.6602H284.93V83.6602ZM281.082 83.6602H277.082V87.6602H281.082V83.6602ZM281.082 80.8672V76.8672H277.082V80.8672H281.082ZM284.93 80.8672V84.8672H288.93V80.8672H284.93ZM284.93 75.75V71.75H280.93V75.75H284.93ZM284.543 75.75V80.8672H292.543V75.75H284.543ZM288.543 84.8672H292.488V76.8672H288.543V84.8672ZM288.488 80.8672V83.6602H296.488V80.8672H288.488ZM292.488 79.6602H288.543V87.6602H292.488V79.6602ZM284.543 83.6602V96.7656H292.543V83.6602H284.543ZM284.543 96.7656C284.543 98.0731 284.801 99.7778 285.974 101.213L292.166 96.1467C292.405 96.4384 292.499 96.6993 292.531 96.8165C292.561 96.9241 292.543 96.9243 292.543 96.7656H284.543ZM286.013 101.259C287.463 102.978 289.494 103.305 290.867 103.305V95.3047C290.751 95.3047 290.859 95.2877 291.097 95.3705C291.364 95.4631 291.769 95.6757 292.127 96.1002L286.013 101.259ZM290.867 103.305C291.704 103.305 292.599 103.158 293.424 102.982L291.748 95.1591C291.455 95.2218 291.232 95.2606 291.069 95.2828C290.898 95.306 290.841 95.3047 290.867 95.3047V103.305ZM288.586 99.0703V102H296.586V99.0703H288.586ZM291.529 98.1422C290.89 98.3173 290.321 98.3906 289.812 98.3906V106.391C291.101 106.391 292.381 106.204 293.643 105.858L291.529 98.1422ZM289.812 98.3906C289.401 98.3906 289.217 98.3278 289.177 98.3119C289.159 98.3045 289.166 98.3051 289.185 98.3187C289.204 98.3327 289.218 98.3469 289.223 98.353L283.097 103.499C284.872 105.612 287.356 106.391 289.812 106.391V98.3906ZM289.223 98.353C289.214 98.3426 288.93 98.0014 288.93 96.7656H280.93C280.93 99.1236 281.465 101.556 283.097 103.499L289.223 98.353ZM288.93 96.7656V83.6602H280.93V96.7656H288.93ZM284.93 79.6602H281.082V87.6602H284.93V79.6602ZM285.082 83.6602V80.8672H277.082V83.6602H285.082ZM281.082 84.8672H284.93V76.8672H281.082V84.8672ZM288.93 80.8672V75.75H280.93V80.8672H288.93ZM284.93 79.75H288.543V71.75H284.93V79.75ZM306.504 99.5781L303.606 102.336L303.616 102.346L306.504 99.5781ZM305 85.75L301.405 83.9952L301.4 84.007L305 85.75ZM308.359 81.8828L310.529 85.2436L310.536 85.2387L308.359 81.8828ZM319.453 83.1914L316.393 85.7673L319.453 83.1914ZM321.738 92.4688V96.4688H325.738V92.4688H321.738ZM307.422 92.4688V88.4688H303.321L303.423 92.5687L307.422 92.4688ZM309.238 97.5273L306.264 100.202L306.278 100.217L306.292 100.233L309.238 97.5273ZM319.258 96.5898L321.716 93.4339L318.548 90.967L316.093 94.1441L319.258 96.5898ZM321.465 98.3086L324.818 100.49L326.822 97.4104L323.923 95.1527L321.465 98.3086ZM309.375 85.0469L312.292 87.7838L312.3 87.7749L312.309 87.7659L309.375 85.0469ZM307.539 89.5L303.569 89.0138L303.019 93.5H307.539V89.5ZM318.125 89.5V93.5H322.125V89.5H318.125ZM318.125 89.2266H322.125V89.1132L322.119 89L318.125 89.2266ZM316.641 84.9688L313.626 87.5973L313.634 87.6069L313.642 87.6165L316.641 84.9688ZM313.496 98.3906C311.598 98.3906 310.352 97.8129 309.392 96.8105L303.616 102.346C306.249 105.093 309.665 106.391 313.496 106.391V98.3906ZM309.401 96.8205C308.455 95.826 307.809 94.3713 307.809 92.0195H299.809C299.809 95.9699 300.959 99.5543 303.606 102.336L309.401 96.8205ZM307.809 92.0195V91.3555H299.809V92.0195H307.809ZM307.809 91.3555C307.809 89.7722 308.106 88.5141 308.6 87.493L301.4 84.007C300.306 86.2671 299.809 88.746 299.809 91.3555H307.809ZM308.595 87.5048C309.108 86.4524 309.757 85.7413 310.529 85.2436L306.19 78.5221C304.097 79.8733 302.506 81.7403 301.405 83.9952L308.595 87.5048ZM310.536 85.2387C311.351 84.7102 312.16 84.4766 313.047 84.4766V76.4766C310.574 76.4766 308.258 77.1804 306.183 78.527L310.536 85.2387ZM313.047 84.4766C314.826 84.4766 315.756 85.0107 316.393 85.7673L322.513 80.6155C320.103 77.7523 316.763 76.4766 313.047 76.4766V84.4766ZM316.393 85.7673C317.096 86.603 317.738 88.1406 317.738 90.9648H325.738C325.738 87.0443 324.857 83.3996 322.513 80.6155L316.393 85.7673ZM317.738 90.9648V92.4688H325.738V90.9648H317.738ZM321.738 88.4688H307.422V96.4688H321.738V88.4688ZM303.423 92.5687C303.494 95.4033 304.345 98.0671 306.264 100.202L312.213 94.8531C311.814 94.4095 311.454 93.7009 311.421 92.3688L303.423 92.5687ZM306.292 100.233C308.253 102.368 310.822 103.441 313.691 103.441V95.4414C312.967 95.4414 312.567 95.2388 312.184 94.8217L306.292 100.233ZM313.691 103.441C315.509 103.441 317.329 103.068 318.962 102.108L314.906 95.2124C314.767 95.2937 314.426 95.4414 313.691 95.4414V103.441ZM318.962 102.108C320.311 101.314 321.465 100.275 322.423 99.0356L316.093 94.1441C315.722 94.6234 315.327 94.9646 314.906 95.2124L318.962 102.108ZM316.8 99.7457L319.007 101.464L323.923 95.1527L321.716 93.4339L316.8 99.7457ZM318.112 96.1269C317.156 97.5969 315.831 98.3906 313.496 98.3906V106.391C318.245 106.391 322.232 104.463 324.818 100.49L318.112 96.1269ZM313.047 79.4453C310.477 79.4453 308.189 80.4417 306.441 82.3278L312.309 87.7659C312.54 87.5166 312.7 87.4453 313.047 87.4453V79.4453ZM306.458 82.3099C304.721 84.1612 303.872 86.535 303.569 89.0138L311.509 89.9862C311.675 88.6369 312.05 88.0419 312.292 87.7838L306.458 82.3099ZM307.539 93.5H318.125V85.5H307.539V93.5ZM322.125 89.5V89.2266H314.125V89.5H322.125ZM322.119 89C321.982 86.5999 321.306 84.2088 319.639 82.321L313.642 87.6165C313.746 87.7339 314.059 88.1813 314.131 89.4531L322.119 89ZM319.656 82.3402C317.914 80.3419 315.557 79.4453 313.047 79.4453V87.4453C313.351 87.4453 313.485 87.4953 313.517 87.5089C313.538 87.5177 313.567 87.5298 313.626 87.5973L319.656 82.3402ZM341.027 88.582L337.597 90.64L341.006 96.3207L344.446 90.6591L341.027 88.582ZM345.715 80.8672V76.8672H343.465L342.296 78.7901L345.715 80.8672ZM349.934 80.8672L353.269 83.0745L357.377 76.8672H349.934V80.8672ZM343.02 91.3164L339.684 89.1091L338.217 91.3257L339.692 93.5366L343.02 91.3164ZM350.148 102V106H357.626L353.476 99.7798L350.148 102ZM345.969 102L342.565 104.101L343.737 106H345.969V102ZM341.086 94.0898L344.49 91.9888L341.086 86.4747L337.682 91.9888L341.086 94.0898ZM336.203 102V106H338.435L339.607 104.101L336.203 102ZM332.004 102L328.677 99.7798L324.526 106H332.004V102ZM339.133 91.3164L342.46 93.5366L343.935 91.3257L342.469 89.1091L339.133 91.3164ZM332.219 80.8672V76.8672H324.776L328.883 83.0745L332.219 80.8672ZM336.398 80.8672L339.828 78.8092L338.663 76.8672H336.398V80.8672ZM344.446 90.6591L349.133 82.9442L342.296 78.7901L337.609 86.505L344.446 90.6591ZM345.715 84.8672H349.934V76.8672H345.715V84.8672ZM346.598 78.6599L339.684 89.1091L346.355 93.5237L353.269 83.0745L346.598 78.6599ZM339.692 93.5366L346.821 104.22L353.476 99.7798L346.347 89.0962L339.692 93.5366ZM350.148 98H345.969V106H350.148V98ZM349.372 99.8989L344.49 91.9888L337.682 96.1909L342.565 104.101L349.372 99.8989ZM337.682 91.9888L332.799 99.8989L339.607 104.101L344.49 96.1909L337.682 91.9888ZM336.203 98H332.004V106H336.203V98ZM335.331 104.22L342.46 93.5366L335.806 89.0962L328.677 99.7798L335.331 104.22ZM342.469 89.1091L335.555 78.6599L328.883 83.0745L335.797 93.5237L342.469 89.1091ZM332.219 84.8672H336.398V76.8672H332.219V84.8672ZM332.968 82.9252L337.597 90.64L344.457 86.524L339.828 78.8092L332.968 82.9252ZM366.684 75.75H370.684V71.75H366.684V75.75ZM366.684 80.8672H362.684V84.8672H366.684V80.8672ZM370.629 80.8672H374.629V76.8672H370.629V80.8672ZM370.629 83.6602V87.6602H374.629V83.6602H370.629ZM366.684 83.6602V79.6602H362.684V83.6602H366.684ZM367.211 98.6797L364.115 101.213L364.134 101.236L364.154 101.259L367.211 98.6797ZM370.727 99.0703H374.727V94.1224L369.888 95.1591L370.727 99.0703ZM370.727 102L371.784 105.858L374.727 105.052V102H370.727ZM363.07 83.6602H367.07V79.6602H363.07V83.6602ZM359.223 83.6602H355.223V87.6602H359.223V83.6602ZM359.223 80.8672V76.8672H355.223V80.8672H359.223ZM363.07 80.8672V84.8672H367.07V80.8672H363.07ZM363.07 75.75V71.75H359.07V75.75H363.07ZM362.684 75.75V80.8672H370.684V75.75H362.684ZM366.684 84.8672H370.629V76.8672H366.684V84.8672ZM366.629 80.8672V83.6602H374.629V80.8672H366.629ZM370.629 79.6602H366.684V87.6602H370.629V79.6602ZM362.684 83.6602V96.7656H370.684V83.6602H362.684ZM362.684 96.7656C362.684 98.0731 362.941 99.7778 364.115 101.213L370.307 96.1467C370.545 96.4384 370.639 96.6993 370.672 96.8165C370.701 96.9241 370.684 96.9243 370.684 96.7656H362.684ZM364.154 101.259C365.604 102.978 367.635 103.305 369.008 103.305V95.3047C368.892 95.3047 369 95.2877 369.238 95.3705C369.504 95.4631 369.91 95.6757 370.268 96.1002L364.154 101.259ZM369.008 103.305C369.844 103.305 370.739 103.158 371.565 102.982L369.888 95.1591C369.596 95.2218 369.372 95.2606 369.21 95.2828C369.039 95.306 368.981 95.3047 369.008 95.3047V103.305ZM366.727 99.0703V102H374.727V99.0703H366.727ZM369.67 98.1422C369.03 98.3173 368.462 98.3906 367.953 98.3906V106.391C369.241 106.391 370.522 106.204 371.784 105.858L369.67 98.1422ZM367.953 98.3906C367.542 98.3906 367.358 98.3278 367.318 98.3119C367.3 98.3045 367.306 98.3051 367.325 98.3187C367.345 98.3327 367.359 98.3469 367.364 98.353L361.238 103.499C363.013 105.612 365.497 106.391 367.953 106.391V98.3906ZM367.364 98.353C367.355 98.3426 367.07 98.0014 367.07 96.7656H359.07C359.07 99.1236 359.606 101.556 361.238 103.499L367.364 98.353ZM367.07 96.7656V83.6602H359.07V96.7656H367.07ZM363.07 79.6602H359.223V87.6602H363.07V79.6602ZM363.223 83.6602V80.8672H355.223V83.6602H363.223ZM359.223 84.8672H363.07V76.8672H359.223V84.8672ZM367.07 80.8672V75.75H359.07V80.8672H367.07ZM363.07 79.75H366.684V71.75H363.07V79.75Z" fill="white"/>
</svg>
