<svg width="1129" height="120" viewBox="0 0 1129 120" fill="none" xmlns="http://www.w3.org/2000/svg">
<g id="title-text">
<mask id="path-1-outside-1_2:6" maskUnits="userSpaceOnUse" x="0.882812" y="0" width="1129" height="120" fill="black">
<rect fill="white" x="0.882812" width="1129" height="120"/>
<path d="M23.3203 10.625L56.7891 94.1562L90.2578 10.625H107.766V113H94.2656V73.1328L95.5312 30.1016L61.9219 113H51.5859L18.0469 30.3125L19.3828 73.1328V113H5.88281V10.625H23.3203Z"/>
<path d="M176.531 105.477C171.469 111.43 164.039 114.406 154.242 114.406C146.133 114.406 139.945 112.062 135.68 107.375C131.461 102.641 129.328 95.6562 129.281 86.4219V36.9219H142.289V86.0703C142.289 97.6016 146.977 103.367 156.352 103.367C166.289 103.367 172.898 99.6641 176.18 92.2578V36.9219H189.188V113H176.812L176.531 105.477Z"/>
<path d="M253.312 92.8203C253.312 89.3047 251.977 86.5859 249.305 84.6641C246.68 82.6953 242.062 81.0078 235.453 79.6016C228.891 78.1953 223.664 76.5078 219.773 74.5391C215.93 72.5703 213.07 70.2266 211.195 67.5078C209.367 64.7891 208.453 61.5547 208.453 57.8047C208.453 51.5703 211.078 46.2969 216.328 41.9844C221.625 37.6719 228.375 35.5156 236.578 35.5156C245.203 35.5156 252.188 37.7422 257.531 42.1953C262.922 46.6484 265.617 52.3438 265.617 59.2812H252.539C252.539 55.7188 251.016 52.6484 247.969 50.0703C244.969 47.4922 241.172 46.2031 236.578 46.2031C231.844 46.2031 228.141 47.2344 225.469 49.2969C222.797 51.3594 221.461 54.0547 221.461 57.3828C221.461 60.5234 222.703 62.8906 225.188 64.4844C227.672 66.0781 232.148 67.6016 238.617 69.0547C245.133 70.5078 250.406 72.2422 254.438 74.2578C258.469 76.2734 261.445 78.7109 263.367 81.5703C265.336 84.3828 266.32 87.8281 266.32 91.9062C266.32 98.7031 263.602 104.164 258.164 108.289C252.727 112.367 245.672 114.406 237 114.406C230.906 114.406 225.516 113.328 220.828 111.172C216.141 109.016 212.461 106.016 209.789 102.172C207.164 98.2812 205.852 94.0859 205.852 89.5859H218.859C219.094 93.9453 220.828 97.4141 224.062 99.9922C227.344 102.523 231.656 103.789 237 103.789C241.922 103.789 245.859 102.805 248.812 100.836C251.812 98.8203 253.312 96.1484 253.312 92.8203Z"/>
<path d="M297.398 113H284.391V36.9219H297.398V113ZM283.336 16.7422C283.336 14.6328 283.969 12.8516 285.234 11.3984C286.547 9.94531 288.469 9.21875 291 9.21875C293.531 9.21875 295.453 9.94531 296.766 11.3984C298.078 12.8516 298.734 14.6328 298.734 16.7422C298.734 18.8516 298.078 20.6094 296.766 22.0156C295.453 23.4219 293.531 24.125 291 24.125C288.469 24.125 286.547 23.4219 285.234 22.0156C283.969 20.6094 283.336 18.8516 283.336 16.7422Z"/>
<path d="M348.797 103.789C353.438 103.789 357.492 102.383 360.961 99.5703C364.43 96.7578 366.352 93.2422 366.727 89.0234H379.031C378.797 93.3828 377.297 97.5312 374.531 101.469C371.766 105.406 368.062 108.547 363.422 110.891C358.828 113.234 353.953 114.406 348.797 114.406C338.438 114.406 330.188 110.961 324.047 104.07C317.953 97.1328 314.906 87.6641 314.906 75.6641V73.4844C314.906 66.0781 316.266 59.4922 318.984 53.7266C321.703 47.9609 325.594 43.4844 330.656 40.2969C335.766 37.1094 341.789 35.5156 348.727 35.5156C357.258 35.5156 364.336 38.0703 369.961 43.1797C375.633 48.2891 378.656 54.9219 379.031 63.0781H366.727C366.352 58.1562 364.477 54.125 361.102 50.9844C357.773 47.7969 353.648 46.2031 348.727 46.2031C342.117 46.2031 336.984 48.5938 333.328 53.375C329.719 58.1094 327.914 64.9766 327.914 73.9766V76.4375C327.914 85.2031 329.719 91.9531 333.328 96.6875C336.938 101.422 342.094 103.789 348.797 103.789Z"/>
<path d="M407.789 113H394.781V36.9219H407.789V113ZM393.727 16.7422C393.727 14.6328 394.359 12.8516 395.625 11.3984C396.938 9.94531 398.859 9.21875 401.391 9.21875C403.922 9.21875 405.844 9.94531 407.156 11.3984C408.469 12.8516 409.125 14.6328 409.125 16.7422C409.125 18.8516 408.469 20.6094 407.156 22.0156C405.844 23.4219 403.922 24.125 401.391 24.125C398.859 24.125 396.938 23.4219 395.625 22.0156C394.359 20.6094 393.727 18.8516 393.727 16.7422Z"/>
<path d="M475.641 113C474.891 111.5 474.281 108.828 473.812 104.984C467.766 111.266 460.547 114.406 452.156 114.406C444.656 114.406 438.492 112.297 433.664 108.078C428.883 103.812 426.492 98.4219 426.492 91.9062C426.492 83.9844 429.492 77.8438 435.492 73.4844C441.539 69.0781 450.023 66.875 460.945 66.875H473.602V60.8984C473.602 56.3516 472.242 52.7422 469.523 50.0703C466.805 47.3516 462.797 45.9922 457.5 45.9922C452.859 45.9922 448.969 47.1641 445.828 49.5078C442.688 51.8516 441.117 54.6875 441.117 58.0156H428.039C428.039 54.2188 429.375 50.5625 432.047 47.0469C434.766 43.4844 438.422 40.6719 443.016 38.6094C447.656 36.5469 452.742 35.5156 458.273 35.5156C467.039 35.5156 473.906 37.7188 478.875 42.125C483.844 46.4844 486.422 52.5078 486.609 60.1953V95.2109C486.609 102.195 487.5 107.75 489.281 111.875V113H475.641ZM454.055 103.086C458.133 103.086 462 102.031 465.656 99.9219C469.312 97.8125 471.961 95.0703 473.602 91.6953V76.0859H463.406C447.469 76.0859 439.5 80.75 439.5 90.0781C439.5 94.1562 440.859 97.3438 443.578 99.6406C446.297 101.938 449.789 103.086 454.055 103.086Z"/>
<path d="M519.305 36.9219L519.727 46.4844C525.539 39.1719 533.133 35.5156 542.508 35.5156C558.586 35.5156 566.695 44.5859 566.836 62.7266V113H553.828V62.6562C553.781 57.1719 552.516 53.1172 550.031 50.4922C547.594 47.8672 543.773 46.5547 538.57 46.5547C534.352 46.5547 530.648 47.6797 527.461 49.9297C524.273 52.1797 521.789 55.1328 520.008 58.7891V113H507V36.9219H519.305Z"/>
<path d="M630.75 92.8203C630.75 89.3047 629.414 86.5859 626.742 84.6641C624.117 82.6953 619.5 81.0078 612.891 79.6016C606.328 78.1953 601.102 76.5078 597.211 74.5391C593.367 72.5703 590.508 70.2266 588.633 67.5078C586.805 64.7891 585.891 61.5547 585.891 57.8047C585.891 51.5703 588.516 46.2969 593.766 41.9844C599.062 37.6719 605.812 35.5156 614.016 35.5156C622.641 35.5156 629.625 37.7422 634.969 42.1953C640.359 46.6484 643.055 52.3438 643.055 59.2812H629.977C629.977 55.7188 628.453 52.6484 625.406 50.0703C622.406 47.4922 618.609 46.2031 614.016 46.2031C609.281 46.2031 605.578 47.2344 602.906 49.2969C600.234 51.3594 598.898 54.0547 598.898 57.3828C598.898 60.5234 600.141 62.8906 602.625 64.4844C605.109 66.0781 609.586 67.6016 616.055 69.0547C622.57 70.5078 627.844 72.2422 631.875 74.2578C635.906 76.2734 638.883 78.7109 640.805 81.5703C642.773 84.3828 643.758 87.8281 643.758 91.9062C643.758 98.7031 641.039 104.164 635.602 108.289C630.164 112.367 623.109 114.406 614.438 114.406C608.344 114.406 602.953 113.328 598.266 111.172C593.578 109.016 589.898 106.016 587.227 102.172C584.602 98.2812 583.289 94.0859 583.289 89.5859H596.297C596.531 93.9453 598.266 97.4141 601.5 99.9922C604.781 102.523 609.094 103.789 614.438 103.789C619.359 103.789 623.297 102.805 626.25 100.836C629.25 98.8203 630.75 96.1484 630.75 92.8203Z"/>
<path d="M773.766 80.5156C772.5 91.3438 768.492 99.7109 761.742 105.617C755.039 111.477 746.109 114.406 734.953 114.406C722.859 114.406 713.156 110.07 705.844 101.398C698.578 92.7266 694.945 81.125 694.945 66.5938V56.75C694.945 47.2344 696.633 38.8672 700.008 31.6484C703.43 24.4297 708.258 18.8984 714.492 15.0547C720.727 11.1641 727.945 9.21875 736.148 9.21875C747.023 9.21875 755.742 12.2656 762.305 18.3594C768.867 24.4062 772.688 32.7969 773.766 43.5312H760.195C759.023 35.375 756.469 29.4688 752.531 25.8125C748.641 22.1562 743.18 20.3281 736.148 20.3281C727.523 20.3281 720.75 23.5156 715.828 29.8906C710.953 36.2656 708.516 45.3359 708.516 57.1016V67.0156C708.516 78.125 710.836 86.9609 715.477 93.5234C720.117 100.086 726.609 103.367 734.953 103.367C742.453 103.367 748.195 101.68 752.18 98.3047C756.211 94.8828 758.883 88.9531 760.195 80.5156H773.766Z"/>
<path d="M803.227 46.1328C808.992 39.0547 816.492 35.5156 825.727 35.5156C841.805 35.5156 849.914 44.5859 850.055 62.7266V113H837.047V62.6562C837 57.1719 835.734 53.1172 833.25 50.4922C830.812 47.8672 826.992 46.5547 821.789 46.5547C817.57 46.5547 813.867 47.6797 810.68 49.9297C807.492 52.1797 805.008 55.1328 803.227 58.7891V113H790.219V5H803.227V46.1328Z"/>
<path d="M866.086 74.2578C866.086 66.8047 867.539 60.1016 870.445 54.1484C873.398 48.1953 877.477 43.6016 882.68 40.3672C887.93 37.1328 893.906 35.5156 900.609 35.5156C910.969 35.5156 919.336 39.1016 925.711 46.2734C932.133 53.4453 935.344 62.9844 935.344 74.8906V75.8047C935.344 83.2109 933.914 89.8672 931.055 95.7734C928.242 101.633 924.188 106.203 918.891 109.484C913.641 112.766 907.594 114.406 900.75 114.406C890.438 114.406 882.07 110.82 875.648 103.648C869.273 96.4766 866.086 86.9844 866.086 75.1719V74.2578ZM879.164 75.8047C879.164 84.2422 881.109 91.0156 885 96.125C888.938 101.234 894.188 103.789 900.75 103.789C907.359 103.789 912.609 101.211 916.5 96.0547C920.391 90.8516 922.336 83.5859 922.336 74.2578C922.336 65.9141 920.344 59.1641 916.359 54.0078C912.422 48.8047 907.172 46.2031 900.609 46.2031C894.188 46.2031 889.008 48.7578 885.07 53.8672C881.133 58.9766 879.164 66.2891 879.164 75.8047Z"/>
<path d="M965.789 113H952.781V36.9219H965.789V113ZM951.727 16.7422C951.727 14.6328 952.359 12.8516 953.625 11.3984C954.938 9.94531 956.859 9.21875 959.391 9.21875C961.922 9.21875 963.844 9.94531 965.156 11.3984C966.469 12.8516 967.125 14.6328 967.125 16.7422C967.125 18.8516 966.469 20.6094 965.156 22.0156C963.844 23.4219 961.922 24.125 959.391 24.125C956.859 24.125 954.938 23.4219 953.625 22.0156C952.359 20.6094 951.727 18.8516 951.727 16.7422Z"/>
<path d="M1017.19 103.789C1021.83 103.789 1025.88 102.383 1029.35 99.5703C1032.82 96.7578 1034.74 93.2422 1035.12 89.0234H1047.42C1047.19 93.3828 1045.69 97.5312 1042.92 101.469C1040.16 105.406 1036.45 108.547 1031.81 110.891C1027.22 113.234 1022.34 114.406 1017.19 114.406C1006.83 114.406 998.578 110.961 992.438 104.07C986.344 97.1328 983.297 87.6641 983.297 75.6641V73.4844C983.297 66.0781 984.656 59.4922 987.375 53.7266C990.094 47.9609 993.984 43.4844 999.047 40.2969C1004.16 37.1094 1010.18 35.5156 1017.12 35.5156C1025.65 35.5156 1032.73 38.0703 1038.35 43.1797C1044.02 48.2891 1047.05 54.9219 1047.42 63.0781H1035.12C1034.74 58.1562 1032.87 54.125 1029.49 50.9844C1026.16 47.7969 1022.04 46.2031 1017.12 46.2031C1010.51 46.2031 1005.38 48.5938 1001.72 53.375C998.109 58.1094 996.305 64.9766 996.305 73.9766V76.4375C996.305 85.2031 998.109 91.9531 1001.72 96.6875C1005.33 101.422 1010.48 103.789 1017.19 103.789Z"/>
<path d="M1093.62 114.406C1083.3 114.406 1074.91 111.031 1068.45 104.281C1061.98 97.4844 1058.74 88.4141 1058.74 77.0703V74.6797C1058.74 67.1328 1060.17 60.4062 1063.03 54.5C1065.94 48.5469 1069.97 43.9062 1075.12 40.5781C1080.33 37.2031 1085.95 35.5156 1092 35.5156C1101.89 35.5156 1109.58 38.7734 1115.06 45.2891C1120.55 51.8047 1123.29 61.1328 1123.29 73.2734V78.6875H1071.75C1071.94 86.1875 1074.12 92.2578 1078.29 96.8984C1082.51 101.492 1087.85 103.789 1094.32 103.789C1098.91 103.789 1102.8 102.852 1105.99 100.977C1109.18 99.1016 1111.97 96.6172 1114.36 93.5234L1122.3 99.7109C1115.93 109.508 1106.37 114.406 1093.62 114.406ZM1092 46.2031C1086.75 46.2031 1082.34 48.125 1078.78 51.9688C1075.22 55.7656 1073.02 61.1094 1072.17 68H1110.28V67.0156C1109.91 60.4062 1108.12 55.2969 1104.94 51.6875C1101.75 48.0312 1097.44 46.2031 1092 46.2031Z"/>
</mask>
<path d="M23.3203 10.625L56.7891 94.1562L90.2578 10.625H107.766V113H94.2656V73.1328L95.5312 30.1016L61.9219 113H51.5859L18.0469 30.3125L19.3828 73.1328V113H5.88281V10.625H23.3203Z" stroke="#F2545B" stroke-width="10" mask="url(#path-1-outside-1_2:6)"/>
<path d="M176.531 105.477C171.469 111.43 164.039 114.406 154.242 114.406C146.133 114.406 139.945 112.062 135.68 107.375C131.461 102.641 129.328 95.6562 129.281 86.4219V36.9219H142.289V86.0703C142.289 97.6016 146.977 103.367 156.352 103.367C166.289 103.367 172.898 99.6641 176.18 92.2578V36.9219H189.188V113H176.812L176.531 105.477Z" stroke="#F2545B" stroke-width="10" mask="url(#path-1-outside-1_2:6)"/>
<path d="M253.312 92.8203C253.312 89.3047 251.977 86.5859 249.305 84.6641C246.68 82.6953 242.062 81.0078 235.453 79.6016C228.891 78.1953 223.664 76.5078 219.773 74.5391C215.93 72.5703 213.07 70.2266 211.195 67.5078C209.367 64.7891 208.453 61.5547 208.453 57.8047C208.453 51.5703 211.078 46.2969 216.328 41.9844C221.625 37.6719 228.375 35.5156 236.578 35.5156C245.203 35.5156 252.188 37.7422 257.531 42.1953C262.922 46.6484 265.617 52.3438 265.617 59.2812H252.539C252.539 55.7188 251.016 52.6484 247.969 50.0703C244.969 47.4922 241.172 46.2031 236.578 46.2031C231.844 46.2031 228.141 47.2344 225.469 49.2969C222.797 51.3594 221.461 54.0547 221.461 57.3828C221.461 60.5234 222.703 62.8906 225.188 64.4844C227.672 66.0781 232.148 67.6016 238.617 69.0547C245.133 70.5078 250.406 72.2422 254.438 74.2578C258.469 76.2734 261.445 78.7109 263.367 81.5703C265.336 84.3828 266.32 87.8281 266.32 91.9062C266.32 98.7031 263.602 104.164 258.164 108.289C252.727 112.367 245.672 114.406 237 114.406C230.906 114.406 225.516 113.328 220.828 111.172C216.141 109.016 212.461 106.016 209.789 102.172C207.164 98.2812 205.852 94.0859 205.852 89.5859H218.859C219.094 93.9453 220.828 97.4141 224.062 99.9922C227.344 102.523 231.656 103.789 237 103.789C241.922 103.789 245.859 102.805 248.812 100.836C251.812 98.8203 253.312 96.1484 253.312 92.8203Z" stroke="#F2545B" stroke-width="10" mask="url(#path-1-outside-1_2:6)"/>
<path d="M297.398 113H284.391V36.9219H297.398V113ZM283.336 16.7422C283.336 14.6328 283.969 12.8516 285.234 11.3984C286.547 9.94531 288.469 9.21875 291 9.21875C293.531 9.21875 295.453 9.94531 296.766 11.3984C298.078 12.8516 298.734 14.6328 298.734 16.7422C298.734 18.8516 298.078 20.6094 296.766 22.0156C295.453 23.4219 293.531 24.125 291 24.125C288.469 24.125 286.547 23.4219 285.234 22.0156C283.969 20.6094 283.336 18.8516 283.336 16.7422Z" stroke="#F2545B" stroke-width="10" mask="url(#path-1-outside-1_2:6)"/>
<path d="M348.797 103.789C353.438 103.789 357.492 102.383 360.961 99.5703C364.43 96.7578 366.352 93.2422 366.727 89.0234H379.031C378.797 93.3828 377.297 97.5312 374.531 101.469C371.766 105.406 368.062 108.547 363.422 110.891C358.828 113.234 353.953 114.406 348.797 114.406C338.438 114.406 330.188 110.961 324.047 104.07C317.953 97.1328 314.906 87.6641 314.906 75.6641V73.4844C314.906 66.0781 316.266 59.4922 318.984 53.7266C321.703 47.9609 325.594 43.4844 330.656 40.2969C335.766 37.1094 341.789 35.5156 348.727 35.5156C357.258 35.5156 364.336 38.0703 369.961 43.1797C375.633 48.2891 378.656 54.9219 379.031 63.0781H366.727C366.352 58.1562 364.477 54.125 361.102 50.9844C357.773 47.7969 353.648 46.2031 348.727 46.2031C342.117 46.2031 336.984 48.5938 333.328 53.375C329.719 58.1094 327.914 64.9766 327.914 73.9766V76.4375C327.914 85.2031 329.719 91.9531 333.328 96.6875C336.938 101.422 342.094 103.789 348.797 103.789Z" stroke="#F2545B" stroke-width="10" mask="url(#path-1-outside-1_2:6)"/>
<path d="M407.789 113H394.781V36.9219H407.789V113ZM393.727 16.7422C393.727 14.6328 394.359 12.8516 395.625 11.3984C396.938 9.94531 398.859 9.21875 401.391 9.21875C403.922 9.21875 405.844 9.94531 407.156 11.3984C408.469 12.8516 409.125 14.6328 409.125 16.7422C409.125 18.8516 408.469 20.6094 407.156 22.0156C405.844 23.4219 403.922 24.125 401.391 24.125C398.859 24.125 396.938 23.4219 395.625 22.0156C394.359 20.6094 393.727 18.8516 393.727 16.7422Z" stroke="#F2545B" stroke-width="10" mask="url(#path-1-outside-1_2:6)"/>
<path d="M475.641 113C474.891 111.5 474.281 108.828 473.812 104.984C467.766 111.266 460.547 114.406 452.156 114.406C444.656 114.406 438.492 112.297 433.664 108.078C428.883 103.812 426.492 98.4219 426.492 91.9062C426.492 83.9844 429.492 77.8438 435.492 73.4844C441.539 69.0781 450.023 66.875 460.945 66.875H473.602V60.8984C473.602 56.3516 472.242 52.7422 469.523 50.0703C466.805 47.3516 462.797 45.9922 457.5 45.9922C452.859 45.9922 448.969 47.1641 445.828 49.5078C442.688 51.8516 441.117 54.6875 441.117 58.0156H428.039C428.039 54.2188 429.375 50.5625 432.047 47.0469C434.766 43.4844 438.422 40.6719 443.016 38.6094C447.656 36.5469 452.742 35.5156 458.273 35.5156C467.039 35.5156 473.906 37.7188 478.875 42.125C483.844 46.4844 486.422 52.5078 486.609 60.1953V95.2109C486.609 102.195 487.5 107.75 489.281 111.875V113H475.641ZM454.055 103.086C458.133 103.086 462 102.031 465.656 99.9219C469.312 97.8125 471.961 95.0703 473.602 91.6953V76.0859H463.406C447.469 76.0859 439.5 80.75 439.5 90.0781C439.5 94.1562 440.859 97.3438 443.578 99.6406C446.297 101.938 449.789 103.086 454.055 103.086Z" stroke="#F2545B" stroke-width="10" mask="url(#path-1-outside-1_2:6)"/>
<path d="M519.305 36.9219L519.727 46.4844C525.539 39.1719 533.133 35.5156 542.508 35.5156C558.586 35.5156 566.695 44.5859 566.836 62.7266V113H553.828V62.6562C553.781 57.1719 552.516 53.1172 550.031 50.4922C547.594 47.8672 543.773 46.5547 538.57 46.5547C534.352 46.5547 530.648 47.6797 527.461 49.9297C524.273 52.1797 521.789 55.1328 520.008 58.7891V113H507V36.9219H519.305Z" stroke="#F2545B" stroke-width="10" mask="url(#path-1-outside-1_2:6)"/>
<path d="M630.75 92.8203C630.75 89.3047 629.414 86.5859 626.742 84.6641C624.117 82.6953 619.5 81.0078 612.891 79.6016C606.328 78.1953 601.102 76.5078 597.211 74.5391C593.367 72.5703 590.508 70.2266 588.633 67.5078C586.805 64.7891 585.891 61.5547 585.891 57.8047C585.891 51.5703 588.516 46.2969 593.766 41.9844C599.062 37.6719 605.812 35.5156 614.016 35.5156C622.641 35.5156 629.625 37.7422 634.969 42.1953C640.359 46.6484 643.055 52.3438 643.055 59.2812H629.977C629.977 55.7188 628.453 52.6484 625.406 50.0703C622.406 47.4922 618.609 46.2031 614.016 46.2031C609.281 46.2031 605.578 47.2344 602.906 49.2969C600.234 51.3594 598.898 54.0547 598.898 57.3828C598.898 60.5234 600.141 62.8906 602.625 64.4844C605.109 66.0781 609.586 67.6016 616.055 69.0547C622.57 70.5078 627.844 72.2422 631.875 74.2578C635.906 76.2734 638.883 78.7109 640.805 81.5703C642.773 84.3828 643.758 87.8281 643.758 91.9062C643.758 98.7031 641.039 104.164 635.602 108.289C630.164 112.367 623.109 114.406 614.438 114.406C608.344 114.406 602.953 113.328 598.266 111.172C593.578 109.016 589.898 106.016 587.227 102.172C584.602 98.2812 583.289 94.0859 583.289 89.5859H596.297C596.531 93.9453 598.266 97.4141 601.5 99.9922C604.781 102.523 609.094 103.789 614.438 103.789C619.359 103.789 623.297 102.805 626.25 100.836C629.25 98.8203 630.75 96.1484 630.75 92.8203Z" stroke="#F2545B" stroke-width="10" mask="url(#path-1-outside-1_2:6)"/>
<path d="M773.766 80.5156C772.5 91.3438 768.492 99.7109 761.742 105.617C755.039 111.477 746.109 114.406 734.953 114.406C722.859 114.406 713.156 110.07 705.844 101.398C698.578 92.7266 694.945 81.125 694.945 66.5938V56.75C694.945 47.2344 696.633 38.8672 700.008 31.6484C703.43 24.4297 708.258 18.8984 714.492 15.0547C720.727 11.1641 727.945 9.21875 736.148 9.21875C747.023 9.21875 755.742 12.2656 762.305 18.3594C768.867 24.4062 772.688 32.7969 773.766 43.5312H760.195C759.023 35.375 756.469 29.4688 752.531 25.8125C748.641 22.1562 743.18 20.3281 736.148 20.3281C727.523 20.3281 720.75 23.5156 715.828 29.8906C710.953 36.2656 708.516 45.3359 708.516 57.1016V67.0156C708.516 78.125 710.836 86.9609 715.477 93.5234C720.117 100.086 726.609 103.367 734.953 103.367C742.453 103.367 748.195 101.68 752.18 98.3047C756.211 94.8828 758.883 88.9531 760.195 80.5156H773.766Z" stroke="#F2545B" stroke-width="10" mask="url(#path-1-outside-1_2:6)"/>
<path d="M803.227 46.1328C808.992 39.0547 816.492 35.5156 825.727 35.5156C841.805 35.5156 849.914 44.5859 850.055 62.7266V113H837.047V62.6562C837 57.1719 835.734 53.1172 833.25 50.4922C830.812 47.8672 826.992 46.5547 821.789 46.5547C817.57 46.5547 813.867 47.6797 810.68 49.9297C807.492 52.1797 805.008 55.1328 803.227 58.7891V113H790.219V5H803.227V46.1328Z" stroke="#F2545B" stroke-width="10" mask="url(#path-1-outside-1_2:6)"/>
<path d="M866.086 74.2578C866.086 66.8047 867.539 60.1016 870.445 54.1484C873.398 48.1953 877.477 43.6016 882.68 40.3672C887.93 37.1328 893.906 35.5156 900.609 35.5156C910.969 35.5156 919.336 39.1016 925.711 46.2734C932.133 53.4453 935.344 62.9844 935.344 74.8906V75.8047C935.344 83.2109 933.914 89.8672 931.055 95.7734C928.242 101.633 924.188 106.203 918.891 109.484C913.641 112.766 907.594 114.406 900.75 114.406C890.438 114.406 882.07 110.82 875.648 103.648C869.273 96.4766 866.086 86.9844 866.086 75.1719V74.2578ZM879.164 75.8047C879.164 84.2422 881.109 91.0156 885 96.125C888.938 101.234 894.188 103.789 900.75 103.789C907.359 103.789 912.609 101.211 916.5 96.0547C920.391 90.8516 922.336 83.5859 922.336 74.2578C922.336 65.9141 920.344 59.1641 916.359 54.0078C912.422 48.8047 907.172 46.2031 900.609 46.2031C894.188 46.2031 889.008 48.7578 885.07 53.8672C881.133 58.9766 879.164 66.2891 879.164 75.8047Z" stroke="#F2545B" stroke-width="10" mask="url(#path-1-outside-1_2:6)"/>
<path d="M965.789 113H952.781V36.9219H965.789V113ZM951.727 16.7422C951.727 14.6328 952.359 12.8516 953.625 11.3984C954.938 9.94531 956.859 9.21875 959.391 9.21875C961.922 9.21875 963.844 9.94531 965.156 11.3984C966.469 12.8516 967.125 14.6328 967.125 16.7422C967.125 18.8516 966.469 20.6094 965.156 22.0156C963.844 23.4219 961.922 24.125 959.391 24.125C956.859 24.125 954.938 23.4219 953.625 22.0156C952.359 20.6094 951.727 18.8516 951.727 16.7422Z" stroke="#F2545B" stroke-width="10" mask="url(#path-1-outside-1_2:6)"/>
<path d="M1017.19 103.789C1021.83 103.789 1025.88 102.383 1029.35 99.5703C1032.82 96.7578 1034.74 93.2422 1035.12 89.0234H1047.42C1047.19 93.3828 1045.69 97.5312 1042.92 101.469C1040.16 105.406 1036.45 108.547 1031.81 110.891C1027.22 113.234 1022.34 114.406 1017.19 114.406C1006.83 114.406 998.578 110.961 992.438 104.07C986.344 97.1328 983.297 87.6641 983.297 75.6641V73.4844C983.297 66.0781 984.656 59.4922 987.375 53.7266C990.094 47.9609 993.984 43.4844 999.047 40.2969C1004.16 37.1094 1010.18 35.5156 1017.12 35.5156C1025.65 35.5156 1032.73 38.0703 1038.35 43.1797C1044.02 48.2891 1047.05 54.9219 1047.42 63.0781H1035.12C1034.74 58.1562 1032.87 54.125 1029.49 50.9844C1026.16 47.7969 1022.04 46.2031 1017.12 46.2031C1010.51 46.2031 1005.38 48.5938 1001.72 53.375C998.109 58.1094 996.305 64.9766 996.305 73.9766V76.4375C996.305 85.2031 998.109 91.9531 1001.72 96.6875C1005.33 101.422 1010.48 103.789 1017.19 103.789Z" stroke="#F2545B" stroke-width="10" mask="url(#path-1-outside-1_2:6)"/>
<path d="M1093.62 114.406C1083.3 114.406 1074.91 111.031 1068.45 104.281C1061.98 97.4844 1058.74 88.4141 1058.74 77.0703V74.6797C1058.74 67.1328 1060.17 60.4062 1063.03 54.5C1065.94 48.5469 1069.97 43.9062 1075.12 40.5781C1080.33 37.2031 1085.95 35.5156 1092 35.5156C1101.89 35.5156 1109.58 38.7734 1115.06 45.2891C1120.55 51.8047 1123.29 61.1328 1123.29 73.2734V78.6875H1071.75C1071.94 86.1875 1074.12 92.2578 1078.29 96.8984C1082.51 101.492 1087.85 103.789 1094.32 103.789C1098.91 103.789 1102.8 102.852 1105.99 100.977C1109.18 99.1016 1111.97 96.6172 1114.36 93.5234L1122.3 99.7109C1115.93 109.508 1106.37 114.406 1093.62 114.406ZM1092 46.2031C1086.75 46.2031 1082.34 48.125 1078.78 51.9688C1075.22 55.7656 1073.02 61.1094 1072.17 68H1110.28V67.0156C1109.91 60.4062 1108.12 55.2969 1104.94 51.6875C1101.75 48.0312 1097.44 46.2031 1092 46.2031Z" stroke="#F2545B" stroke-width="10" mask="url(#path-1-outside-1_2:6)"/>
</g>
</svg>
